<?xml version="1.0" encoding="UTF-8" standalone="no"?>
<!-- Created with Inkscape (http://www.inkscape.org/) -->

<svg
   width="8.48347mm"
   height="8.5160503mm"
   viewBox="0 0 8.48347 8.5160503"
   version="1.1"
   id="svg5"
   sodipodi:docname="pentagram.svg"
   inkscape:version="1.1 (c68e22c387, 2021-05-23)"
   xmlns:inkscape="http://www.inkscape.org/namespaces/inkscape"
   xmlns:sodipodi="http://sodipodi.sourceforge.net/DTD/sodipodi-0.dtd"
   xmlns="http://www.w3.org/2000/svg"
   xmlns:svg="http://www.w3.org/2000/svg">
  <sodipodi:namedview
     id="namedview7"
     pagecolor="#ffffff"
     bordercolor="#666666"
     borderopacity="1.0"
     inkscape:pageshadow="2"
     inkscape:pageopacity="0.0"
     inkscape:pagecheckerboard="0"
     inkscape:document-units="mm"
     showgrid="false"
     inkscape:zoom="22.627417"
     inkscape:cx="21.169009"
     inkscape:cy="16.285553"
     inkscape:window-width="1920"
     inkscape:window-height="1027"
     inkscape:window-x="1912"
     inkscape:window-y="-8"
     inkscape:window-maximized="1"
     inkscape:current-layer="layer1" />
  <defs
     id="defs2" />
  <g
     inkscape:label="F.SilkS"
     inkscape:groupmode="layer"
     id="layer1"
     transform="translate(-185.15349,-166.58099)">
    <path
       style="fill:#000000;stroke-width:0.0205962"
       d="m 192.66128,169.36946 -0.0528,-0.10419 -0.084,-0.1373 -0.0841,-0.13731 -0.10781,-0.14579 -0.10781,-0.14579 -0.18291,-0.19218 -0.18289,-0.1922 -0.17426,-0.13625 -0.17427,-0.13628 -0.15546,-0.0993 -0.15545,-0.0993 -0.20596,-0.10098 -0.20596,-0.10097 -0.24716,-0.0818 -0.24715,-0.0818 -0.19567,-0.0346 -0.19565,-0.0346 -0.0211,-0.005 -0.0211,-0.005 -0.0599,-0.18745 -0.0598,-0.18747 0.009,-0.009 0.009,-0.009 0.24716,0.0368 0.24716,0.0368 0.17507,0.0454 0.17507,0.0454 0.19566,0.073 0.19565,0.073 0.20473,0.1025 0.20472,0.1025 0.13512,0.0842 0.13511,0.0842 0.15448,0.11414 0.15446,0.11413 0.21386,0.20628 0.21386,0.20628 0.13148,0.16213 0.13148,0.1621 0.11132,0.16744 0.11132,0.16741 0.11489,0.2242 0.11489,0.22422 v 0.0178 0.0178 h -0.20562 -0.20561 z"
       id="path2792" />
    <path
       style="fill:#000000;stroke-width:0.0205962"
       d="m 185.66947,169.45575 v -0.0178 l 0.11098,-0.21646 0.11098,-0.21647 0.0772,-0.12103 0.0773,-0.12101 0.11516,-0.15447 0.11515,-0.15448 0.21637,-0.22306 0.21635,-0.22305 0.13416,-0.10886 0.13417,-0.10887 0.18957,-0.1269 0.18958,-0.1269 0.26894,-0.1309 0.26896,-0.13091 0.22115,-0.0733 0.22114,-0.0734 0.25747,-0.0507 0.25744,-0.0506 0.0978,-0.009 0.0978,-0.009 2.3e-4,0.0129 2.3e-4,0.0129 -0.0556,0.18236 -0.0555,0.18236 -0.0217,0.005 -0.0218,0.005 -0.23232,0.0444 -0.23234,0.0444 -0.20916,0.0728 -0.20916,0.0728 -0.19124,0.0895 -0.19128,0.0895 -0.18079,0.11779 -0.18081,0.11778 -0.12326,0.0948 -0.12326,0.0948 -0.14271,0.13411 -0.14272,0.13411 -0.15481,0.18536 -0.15482,0.18536 -0.10777,0.16695 -0.10776,0.16693 -0.0639,0.12657 -0.0639,0.12654 h -0.20567 -0.20567 v -0.0178 z"
       id="path2790" />
    <path
       style="fill:#000000;stroke-width:0.0205962"
       d="m 188.10332,171.10839 -0.15098,-0.11359 0.0114,-0.0296 0.0114,-0.0296 0.27005,-0.82884 0.27005,-0.82885 0.13377,-0.41192 0.13378,-0.41193 0.1544,-0.4737 0.1544,-0.47372 0.14494,-0.44283 0.14494,-0.44282 0.005,-0.0173 0.009,-0.0227 0.0105,0.0267 0.0109,0.0322 0.15256,0.4643 0.15255,0.4643 0.13397,0.41194 0.13397,0.41191 0.16657,0.50885 0.16661,0.50882 v 0.0326 0.0326 l -0.19051,-0.005 -0.19053,-0.005 -0.0826,-0.24714 -0.0826,-0.24716 -0.18511,-0.57135 -0.18512,-0.57134 -0.0114,-2e-4 -0.0114,-2.1e-4 -0.0461,0.14931 -0.0461,0.14934 -0.1519,0.46342 -0.15188,0.46341 -0.27072,0.83414 -0.27074,0.83415 -0.0828,0.25231 -0.0828,0.2523 -0.0138,-8.1e-4 -0.0137,-7.9e-4 -0.15098,-0.11358 z"
       id="path2788" />
    <path
       style="fill:#000000;stroke-width:0.0205962"
       d="m 191.12142,171.25905 -0.0556,-0.17115 v -0.0125 -0.0125 l 0.70379,-0.51146 0.70382,-0.51143 -1.80421,-0.005 -1.80421,-0.005 0.0621,-0.18526 0.0621,-0.18526 h 2.31523 2.31522 l 0.0173,4e-5 -0.0173,0.0164 -0.52004,0.3795 -0.52006,0.37949 -0.68509,0.49791 -0.68506,0.49792 h -0.0162 -0.0161 z"
       id="path2786" />
    <path
       style="fill:#000000;stroke-width:0.0205962"
       d="m 187.24508,171.18102 -1.6683,-1.21499 -0.19004,-0.13417 -0.19005,-0.13416 -0.0234,-0.0201 -0.0198,-0.0183 1.52389,-4.7e-4 h 1.50474 v 0.0195 0.0195 l -0.0524,0.1656 -0.0524,0.16562 -0.8778,0.005 -0.87781,0.005 1.42957,1.03796 1.42959,1.03796 0.028,0.0256 0.028,0.0257 -0.12834,0.0898 -0.12837,0.0898 -0.0335,0.0247 -0.0334,0.0247 z"
       id="path2784" />
    <path
       style="fill:#000000;stroke-width:0.0205962"
       d="m 191.98645,173.91597 -0.0556,-0.17114 v -0.0235 -0.0234 l 0.0949,-0.0988 0.0949,-0.0989 0.1044,-0.12358 0.10439,-0.12357 0.14195,-0.21514 0.14194,-0.21512 0.0888,-0.1865 0.0887,-0.18649 0.0554,-0.15438 0.0555,-0.15437 0.0491,-0.18879 0.0491,-0.18881 0.032,-0.22908 0.0319,-0.22908 v -0.25214 -0.25213 l -0.0208,-0.17452 -0.0208,-0.17454 -0.0105,-0.0451 -0.0105,-0.0451 0.15214,-0.11449 0.15213,-0.1145 h 0.0208 0.0208 l 0.0329,0.18021 0.0329,0.18022 0.0216,0.25746 0.0216,0.25746 -0.0128,0.21625 -0.0128,0.21626 -0.0286,0.19904 -0.0285,0.19906 -0.0531,0.20982 -0.0532,0.20979 -0.0816,0.21721 -0.0816,0.2172 -0.10957,0.20981 -0.10959,0.20982 -0.12112,0.18019 -0.12114,0.18019 -0.15797,0.18881 -0.15797,0.18881 -0.12461,0.11843 -0.12462,0.11844 h -0.0179 -0.0179 z"
       id="path2782" />
    <path
       style="fill:#000000;stroke-width:0.0205962"
       d="m 186.52668,173.89663 -0.1895,-0.19051 -0.13651,-0.17588 -0.13651,-0.17586 -0.10261,-0.16546 -0.10261,-0.16546 -0.0922,-0.18388 -0.0922,-0.18388 -0.073,-0.19565 -0.073,-0.19567 -0.0517,-0.20596 -0.0517,-0.20596 -0.0223,-0.12305 -0.0223,-0.12305 -0.0215,-0.28564 -0.0215,-0.28564 0.0216,-0.27098 0.0216,-0.27099 0.033,-0.18023 0.033,-0.1802 h 0.0217 0.0218 l 0.15215,0.11451 0.15217,0.11452 -0.0105,0.0348 -0.0105,0.0348 -0.0244,0.21628 -0.0244,0.21626 0.0125,0.32954 0.0125,0.32953 0.0408,0.20179 0.0408,0.20181 0.0547,0.17923 0.0547,0.17923 0.0721,0.17507 0.0722,0.17508 0.0734,0.13387 0.0734,0.13387 0.10198,0.15447 0.10198,0.15448 0.10881,0.13556 0.10882,0.13558 0.10488,0.10599 0.10489,0.10599 v 0.0249 0.0249 l -0.0556,0.17114 -0.0557,0.17116 h -0.0182 -0.0182 z"
       id="path2780" />
    <path
       style="fill:#000000;stroke-width:0.0205962"
       d="m 191.54969,174.31022 -0.45312,-0.32938 -0.43251,-0.31385 -0.43252,-0.31385 -0.33532,-0.24338 -0.33532,-0.24339 0.008,-0.008 0.008,-0.008 0.15006,-0.11227 0.15007,-0.11228 0.10511,0.0752 0.10512,0.0752 0.10304,0.0761 0.10292,0.0761 0.49946,0.36202 0.49946,0.36201 v -0.0204 -0.0204 l -0.1734,-0.52943 -0.17342,-0.52943 -0.27842,-0.85475 -0.27842,-0.85473 -0.0939,-0.28835 -0.0939,-0.28836 -1e-5,-0.0257 -4e-5,-0.0257 h 0.19197 0.19196 l 0.71769,2.20381 0.71767,2.20383 0.0125,0.0376 -0.0297,-0.0207 z"
       id="path2778" />
    <path
       style="fill:#000000;stroke-width:0.0205962"
       d="m 186.77483,174.62328 0.007,-0.0225 0.42456,-1.30204 0.42454,-1.30205 0.037,-0.11328 0.037,-0.11327 0.0273,0.006 0.0273,0.006 0.13715,0.10167 0.13715,0.10167 -0.0684,0.21082 -0.0685,0.21084 -0.19702,0.60161 -0.19704,0.60163 v 0.0218 0.0219 l 0.14933,-0.11067 0.14932,-0.11068 0.80326,-0.58264 0.80324,-0.58264 0.0927,-0.0683 0.0927,-0.0683 0.41193,-0.29944 0.41193,-0.29944 0.0586,0.17562 0.0586,0.17558 -0.009,0.0256 -0.009,0.0257 -0.36798,0.2658 -0.368,0.26583 -0.29864,0.21864 -0.29864,0.21863 -0.82036,0.59627 -0.82036,0.59627 -0.28153,0.20313 -0.28155,0.20315 -0.0977,0.0715 -0.11058,0.0816 z"
       id="path2776" />
    <path
       style="fill:#000000;stroke-width:0.0205962"
       d="m 188.92368,175.06509 -0.21627,-0.0268 -0.16476,-0.0342 -0.16478,-0.0342 -0.2559,-0.0846 -0.2559,-0.0846 -0.28919,-0.14307 -0.28921,-0.14306 0.0611,-0.0489 0.0611,-0.049 0.10855,-0.075 0.10853,-0.075 0.17982,0.0825 0.1798,0.0824 0.14418,0.0529 0.14418,0.0529 0.14415,0.0414 0.14418,0.0414 0.18538,0.0373 0.18536,0.0372 0.47371,-7.8e-4 0.47371,-7.8e-4 0.21626,-0.0468 0.21626,-0.0468 0.15448,-0.0478 0.15446,-0.0478 0.16084,-0.0646 0.16084,-0.0646 0.10388,-0.0526 0.10387,-0.0526 0.026,0.0105 0.026,0.0105 0.14756,0.10766 0.14754,0.10765 -0.0675,0.0416 -0.0675,0.0416 -0.24716,0.11806 -0.24715,0.11807 -0.19399,0.0639 -0.19398,0.0639 -0.2407,0.0509 -0.2407,0.0508 -0.2244,0.0212 -0.22439,0.0212 -0.20596,-0.003 -0.20596,-0.003 -0.21627,-0.0268 z"
       id="path21" />
  </g>
</svg>
