<?xml version="1.0" encoding="UTF-8" standalone="no"?>
<!-- Created with Inkscape (http://www.inkscape.org/) -->

<svg
   width="9.4999199mm"
   height="9.4998226mm"
   viewBox="0 0 9.4999199 9.4998226"
   version="1.1"
   id="svg5"
   sodipodi:docname="uvstar1.svg"
   inkscape:version="1.1 (c68e22c387, 2021-05-23)"
   xmlns:inkscape="http://www.inkscape.org/namespaces/inkscape"
   xmlns:sodipodi="http://sodipodi.sourceforge.net/DTD/sodipodi-0.dtd"
   xmlns="http://www.w3.org/2000/svg"
   xmlns:svg="http://www.w3.org/2000/svg">
  <sodipodi:namedview
     id="namedview7"
     pagecolor="#ffffff"
     bordercolor="#666666"
     borderopacity="1.0"
     inkscape:pageshadow="2"
     inkscape:pageopacity="0.0"
     inkscape:pagecheckerboard="0"
     inkscape:document-units="mm"
     showgrid="false"
     inkscape:zoom="33.94557"
     inkscape:cx="22.167841"
     inkscape:cy="15.775255"
     inkscape:window-width="1920"
     inkscape:window-height="1027"
     inkscape:window-x="1912"
     inkscape:window-y="-8"
     inkscape:window-maximized="1"
     inkscape:current-layer="layer1" />
  <defs
     id="defs2">
    <pattern
       id="EMFhbasepattern"
       patternUnits="userSpaceOnUse"
       width="6"
       height="6"
       x="0"
       y="0" />
    <pattern
       id="EMFhbasepattern-0"
       patternUnits="userSpaceOnUse"
       width="6"
       height="6"
       x="0"
       y="0" />
  </defs>
  <g
     inkscape:label="F.SilkS"
     inkscape:groupmode="layer"
     id="layer1"
     transform="translate(15.35234,-3.4617475)">
    <path
       style="fill:#000000;stroke-width:0.0550023"
       d="m 16.255859,26.447266 -0.0098,0.01172 -0.01172,0.0098 0.236328,0.578125 0.234375,0.578125 0.523438,1.292969 0.52539,1.294922 0.08789,0.207031 0.08789,0.205078 h 0.02344 0.02148 l 0.228516,-0.585938 0.230469,-0.585937 0.07617,-0.171875 0.07617,-0.169922 0.523437,-1.285156 0.521484,-1.28711 v -0.04297 -0.04297 l -0.232421,0.06055 -0.234376,0.06055 h -1.208984 -1.208984 l -0.244141,-0.0625 z"
       transform="matrix(0.26458333,0,0,0.26458333,-15.35234,3.4617475)"
       id="path2130" />
    <path
       style="fill:#000000;stroke-width:0.0550023"
       d="m 23.669922,24.453125 -0.384766,0.308594 -0.384765,0.310547 -0.576172,0.345703 -0.576172,0.34375 -0.46875,0.185547 -0.466797,0.185546 -0.04297,0.03711 -0.04492,0.03516 0.519532,0.408203 0.519531,0.40625 0.890625,0.6875 0.888672,0.689453 0.367187,0.285157 0.365235,0.287109 0.0039,0.002 0.002,0.0039 -0.06836,-0.509765 -0.07031,-0.509766 -0.199219,-1.458984 -0.201171,-1.458985 -0.03516,-0.292968 z"
       transform="matrix(0.26458333,0,0,0.26458333,-15.35234,3.4617475)"
       id="path2128" />
    <path
       style="fill:#000000;stroke-width:0.0550023"
       d="m 12.212891,24.449219 v 0.01953 0.01758 l -0.134766,1.019531 -0.134766,1.017579 -0.166015,1.177734 -0.167969,1.177734 v 0.05078 0.05273 l 0.125,-0.101563 0.126953,-0.09961 0.08008,-0.07031 0.08008,-0.06836 0.796875,-0.617187 0.796875,-0.617188 0.05469,-0.04297 0.05469,-0.04492 0.357422,-0.27539 0.357422,-0.275391 0.330078,-0.257812 0.328125,-0.25586 0.04492,-0.03711 0.04297,-0.03516 -0.263672,-0.09961 -0.263672,-0.09961 -0.521484,-0.257813 -0.521485,-0.259765 -0.429687,-0.28125 -0.427735,-0.28125 -0.271484,-0.226563 z"
       transform="matrix(0.26458333,0,0,0.26458333,-15.35234,3.4617475)"
       id="path2126" />
    <path
       style="fill:#000000;stroke-width:0.0550023"
       d="m 9.7734375,20.769531 -0.041016,0.01367 -0.039063,0.01563 -1.3007813,1.677734 -1.3027343,1.679688 -0.054688,0.06836 -0.054687,0.07031 h 0.1054687 0.1074219 l 0.7929687,-0.113281 0.7929688,-0.111329 0.7695312,-0.105468 0.7695309,-0.103516 0.494141,-0.06445 0.494141,-0.0625 0.07031,-0.02148 0.07031,-0.02148 L 11.177734,23.345703 10.908203,23 10.662109,22.615234 10.414062,22.228516 10.195312,21.789062 9.9785156,21.347656 9.875,21.058594 Z"
       transform="matrix(0.26458333,0,0,0.26458333,-15.35234,3.4617475)"
       id="path2124" />
    <path
       style="fill:#000000;stroke-width:0.0550023"
       d="m 26.140625,20.736328 -0.212891,0.525391 -0.214843,0.527343 -0.34961,0.589844 -0.349609,0.591797 -0.279297,0.335938 -0.279297,0.335937 0.04687,0.04297 0.04687,0.04102 1.154297,0.154297 1.154297,0.15625 0.824219,0.123047 0.824218,0.121094 0.177735,0.0059 0.179687,0.0078 v -0.02734 -0.02734 l -0.755859,-0.972656 -0.75586,-0.972656 -0.380859,-0.501953 -0.380859,-0.5 -0.22461,-0.279297 z"
       transform="matrix(0.26458333,0,0,0.26458333,-15.35234,3.4617475)"
       id="path2122" />
    <path
       style="fill:#000000;stroke-width:0.0550023"
       d="m 10.699219,20.414062 0.05664,0.152344 0.128907,0.341797 0.15039,0.330078 0.150391,0.330078 L 11.453125,22 l 0.265625,0.429688 0.324219,0.398437 0.324219,0.398437 0.341796,0.316407 0.341797,0.316406 0.28711,0.216797 0.287109,0.21875 0.449219,0.269531 0.449219,0.271485 0.421874,0.175781 0.423829,0.175781 0.441406,0.134766 0.441406,0.132812 0.466797,0.07422 v 0.002 l 0.46875,0.07422 0.685547,0.0039 0.6875,0.0059 0.521484,-0.08008 0.521485,-0.08008 0.496093,-0.140625 0.494141,-0.140625 0.720703,-0.355469 0.720703,-0.355468 0.433594,-0.324219 0.433594,-0.322266 0.43164,-0.435547 0.431641,-0.435547 0.242187,-0.314453 0.242188,-0.3125 0.253906,-0.429687 0.251953,-0.429688 0.179688,-0.414062 0.179687,-0.41211 0.07422,-0.21875 h -3.505859 l -0.0625,0.177735 -0.201172,0.564453 h -0.742188 -0.74414 l -0.257813,-0.703125 -0.01367,-0.03906 h -2.714843 l -0.234375,0.220704 -0.269532,0.251953 -0.205078,0.08789 -0.205078,0.08594 -0.275391,0.07422 -0.27539,0.07422 -0.494141,-0.002 -0.49414,-0.0039 -0.289063,-0.07813 -0.287109,-0.07617 -0.226563,-0.117187 -0.226562,-0.115235 -0.238282,-0.24414 -0.152343,-0.158204 z"
       transform="matrix(0.26458333,0,0,0.26458333,-15.35234,3.4617475)"
       id="path211" />
    <path
       style="fill:#000000;stroke-width:0.0550023"
       d="M 9.4394531,16.265625 8.8613281,16.5 l -0.5761719,0.236328 -1.2910156,0.525391 -1.2910156,0.52539 -0.21875,0.09375 -0.21875,0.09375 0.8769531,0.357422 0.8789063,0.355469 0.8789062,0.359375 0.8789063,0.359375 0.3027343,0.126953 0.3007813,0.126953 0.042969,0.0039 0.042969,0.0059 -0.029297,-0.125 -0.029297,-0.123047 -0.054687,-0.496094 -0.052734,-0.496093 v -0.494141 -0.496094 l 0.078125,-0.578125 0.076172,-0.578125 -0.00977,-0.0078 z"
       transform="matrix(0.26458333,0,0,0.26458333,-15.35234,3.4617475)"
       id="path2100" />
    <path
       style="fill:#000000;stroke-width:0.0550023"
       d="m 26.402344,16.255859 0.06055,0.234375 0.06055,0.234375 v 1.238282 1.238281 l -0.06055,0.236328 -0.0625,0.236328 0.09375,-0.0293 0.0918,-0.0293 1.427734,-0.582031 1.425781,-0.582031 0.564453,-0.226563 L 30.566406,18 v -0.0332 -0.03125 l -0.699218,-0.275391 -0.699219,-0.27539 -0.0293,-0.002 -0.0293,-0.002 -0.125,-0.07031 -0.126953,-0.07031 L 27.96875,16.880859 27.078125,16.519531 26.75,16.388672 26.423828,16.255859 h -0.0098 z"
       transform="matrix(0.26458333,0,0,0.26458333,-15.35234,3.4617475)"
       id="path2098" />
    <path
       style="fill:#000000;stroke-width:0.0550023"
       d="m 28.818359,11.625 -1.996093,0.277344 -1.998047,0.279297 -0.207031,0.03125 -0.208985,0.0332 0.197266,0.21875 0.195312,0.216797 0.363281,0.55664 0.363282,0.556641 0.230468,0.501953 0.232422,0.5 0.06836,0.210937 0.06836,0.212891 0.04492,-0.04687 0.04492,-0.04687 0.525391,-0.6875 0.523437,-0.689453 0.04492,-0.05469 0.04297,-0.05469 0.617187,-0.798828 0.617188,-0.796875 0.160156,-0.19336 0.162109,-0.193359 -0.04492,-0.01563 z"
       transform="matrix(0.26458333,0,0,0.26458333,-15.35234,3.4617475)"
       id="path2096" />
    <path
       style="fill:#000000;stroke-width:0.0550023"
       d="M 7.0390625,11.623047 7.0195312,11.642578 7,11.662109 l 0.9316406,1.208985 0.9335938,1.208984 0.4453125,0.570313 0.4472656,0.568359 0.109375,-0.320312 0.109375,-0.322266 0.2910155,-0.5625 0.291016,-0.5625 0.261718,-0.373047 0.261719,-0.373047 0.183594,-0.230469 0.183594,-0.228515 -0.152344,-0.0293 -0.154297,-0.03125 -0.660156,-0.08594 -0.6582032,-0.08594 -1.3925782,-0.195313 z"
       transform="matrix(0.26458333,0,0,0.26458333,-15.35234,3.4617475)"
       id="path2094" />
    <path
       style="fill:#000000;stroke-width:0.0550023"
       d="m 18.201172,10.292969 -0.617188,0.03125 -0.617187,0.03125 -0.560547,0.115234 -0.5625,0.115235 -0.455078,0.167968 -0.455078,0.167969 -0.439453,0.222656 -0.439453,0.22461 -0.357422,0.236328 -0.357422,0.236328 -0.44336,0.384765 -0.443359,0.384766 -0.419922,0.517578 -0.419922,0.517578 -0.296875,0.527344 -0.298828,0.527344 -0.171875,0.433594 -0.171875,0.433593 -0.132812,0.533203 -0.134766,0.533204 -0.06445,0.59375 -0.06445,0.595703 0.03711,0.578125 0.03516,0.578125 0.138672,0.621093 0.138672,0.623047 0.07227,0.189453 h 2.375 l -0.08399,-0.08789 -0.126953,-0.314453 -0.126953,-0.314453 -0.01367,-2.195313 -0.01172,-2.195312 0.01953,-0.03516 0.02148,-0.03516 0.720703,0.01758 0.71875,0.01758 v 2.019532 2.019531 l 0.0957,0.189453 0.09766,0.189453 0.146484,0.107422 0.146484,0.107422 h 0.294922 0.292969 l 0.181641,-0.09375 0.18164,-0.09375 0.07813,-0.189453 0.08008,-0.189453 0.002,-2.017579 0.002,-2.019531 0.01953,-0.03125 0.01953,-0.0332 0.720703,0.01758 0.722657,0.01758 -0.01563,2.267578 -0.01562,2.267579 -0.13086,0.287109 -0.128906,0.287109 -0.03516,0.0332 h 2.714843 l -0.24414,-0.662109 -0.326172,-0.880859 -0.328125,-0.88086 -0.480469,-1.294922 -0.478515,-1.292968 -0.0078,-0.07227 -0.0059,-0.07031 0.714843,-0.002 0.712891,-0.002 0.332031,0.898438 0.332031,0.900391 0.04688,0.109374 0.04883,0.109376 0.0059,0.0332 0.0039,0.03125 0.330078,0.917968 0.330079,0.916016 h 0.02734 0.02734 l 0.117187,-0.34375 0.117188,-0.341797 0.585938,-1.59375 0.583984,-1.59375 0.01367,-0.01367 0.01367,-0.01367 0.71289,-0.0078 0.712891,-0.0078 -0.01367,0.06055 -0.01563,0.0625 -0.01758,0.09375 -0.01953,0.0957 -0.06836,0.164063 -0.06641,0.166016 -0.769531,2.064453 -0.767578,2.064453 -0.138672,0.386718 h 3.505859 l 0.01563,-0.04687 0.08789,-0.265626 0.121093,-0.505859 0.119141,-0.503906 0.002,-1.101563 0.0039,-1.101562 -0.09961,-0.439453 -0.09961,-0.441407 -0.140625,-0.439453 -0.142578,-0.441406 -0.259766,-0.523437 -0.259766,-0.523438 -0.291015,-0.439453 -0.289063,-0.441406 -0.638672,-0.634766 -0.636718,-0.634765 -0.466797,-0.306641 -0.466797,-0.306641 -0.330078,-0.166015 -0.330078,-0.166016 -0.357422,-0.138672 -0.357422,-0.140625 -0.191406,-0.05859 -0.19336,-0.06055 -0.300781,-0.07813 -0.302734,-0.07617 -0.591797,-0.07031 z"
       transform="matrix(0.26458333,0,0,0.26458333,-15.35234,3.4617475)"
       id="path2092" />
    <path
       style="fill:#000000;stroke-width:0.0550023"
       d="m 11.658203,6.9941406 -0.02539,0.025391 -0.02539,0.025391 0.109375,0.765625 0.107422,0.765625 0.195312,1.40625 c 0.06482,0.4692181 0.19336,1.4082031 0.19336,1.4082031 v 0.04492 l 0.002,0.04297 0.232422,-0.1875 0.234375,-0.1875 0.357421,-0.251954 0.355469,-0.251953 0.441407,-0.240234 0.439453,-0.238281 0.427734,-0.1718752 0.429687,-0.171875 -0.01367,-0.050781 -0.01563,-0.050781 L 14.277344,9.0410156 13.449219,8.40625 12.763672,7.8710938 12.076172,7.3378906 11.867188,7.1660156 Z"
       transform="matrix(0.26458333,0,0,0.26458333,-15.35234,3.4617475)"
       id="path2090" />
    <path
       style="fill:#000000;stroke-width:0.0550023"
       d="m 24.306641,6.9414062 -0.482422,0.375 L 23.339844,7.6933594 22.669922,8.2167969 22,8.7402344 21.365234,9.234375 20.730469,9.7285156 v 0.035156 0.033203 l 0.224609,0.066406 0.226563,0.068359 0.501953,0.2402344 0.503906,0.242187 0.494141,0.326172 0.49414,0.326172 0.220703,0.197266 0.21875,0.197266 0.0293,0.002 0.0293,0.002 0.07227,-0.535156 0.07031,-0.53711 0.214844,-1.5976561 0.214844,-1.5957031 0.03125,-0.1289063 z"
       transform="matrix(0.26458333,0,0,0.26458333,-15.35234,3.4617475)"
       id="path2088" />
    <path
       style="fill:#000000;stroke-width:0.0550023"
       d="m 17.964844,5.296875 -0.03906,0.042969 -0.03711,0.042969 -0.332031,0.8242187 -0.332032,0.8261719 -0.386718,0.9511719 -0.386719,0.9492188 h 0.03125 0.03125 l -0.06055,0.072266 -0.06055,0.074219 -0.08789,0.2089844 -0.08789,0.2089844 0.08984,-0.033203 0.08789,-0.035156 0.644531,-0.0625 0.642579,-0.0625 0.714843,0.035156 0.712891,0.035156 0.248047,0.050781 0.248047,0.048828 0.01563,-0.015625 0.01563,-0.017578 L 19.027344,7.9355469 18.416016,6.4277344 18.189453,5.8632812 Z"
       transform="matrix(0.26458333,0,0,0.26458333,-15.35234,3.4617475)"
       id="path211-6" />
  </g>
</svg>
