G04 #@! TF.GenerationSoftware,KiCad,Pcbnew,(5.1.8)-1*
G04 #@! TF.CreationDate,2021-06-14T15:46:15+01:00*
G04 #@! TF.ProjectId,amulet,616d756c-6574-42e6-9b69-6361645f7063,rev?*
G04 #@! TF.SameCoordinates,Original*
G04 #@! TF.FileFunction,Legend,Bot*
G04 #@! TF.FilePolarity,Positive*
%FSLAX46Y46*%
G04 Gerber Fmt 4.6, Leading zero omitted, Abs format (unit mm)*
G04 Created by KiCad (PCBNEW (5.1.8)-1) date 2021-06-14 15:46:15*
%MOMM*%
%LPD*%
G01*
G04 APERTURE LIST*
%ADD10C,0.200000*%
%ADD11C,0.120000*%
%ADD12C,0.100000*%
G04 APERTURE END LIST*
D10*
X103714285Y-104007142D02*
X103652380Y-103950000D01*
X103528571Y-103892857D01*
X103219047Y-103892857D01*
X103095238Y-103950000D01*
X103033333Y-104007142D01*
X102971428Y-104121428D01*
X102971428Y-104235714D01*
X103033333Y-104407142D01*
X103776190Y-105092857D01*
X102971428Y-105092857D01*
X101176190Y-103892857D02*
X101052380Y-103892857D01*
X100928571Y-103950000D01*
X100866666Y-104007142D01*
X100804761Y-104121428D01*
X100742857Y-104350000D01*
X100742857Y-104635714D01*
X100804761Y-104864285D01*
X100866666Y-104978571D01*
X100928571Y-105035714D01*
X101052380Y-105092857D01*
X101176190Y-105092857D01*
X101300000Y-105035714D01*
X101361904Y-104978571D01*
X101423809Y-104864285D01*
X101485714Y-104635714D01*
X101485714Y-104350000D01*
X101423809Y-104121428D01*
X101361904Y-104007142D01*
X101300000Y-103950000D01*
X101176190Y-103892857D01*
X99257142Y-104007142D02*
X99195238Y-103950000D01*
X99071428Y-103892857D01*
X98761904Y-103892857D01*
X98638095Y-103950000D01*
X98576190Y-104007142D01*
X98514285Y-104121428D01*
X98514285Y-104235714D01*
X98576190Y-104407142D01*
X99319047Y-105092857D01*
X98514285Y-105092857D01*
X96285714Y-105092857D02*
X97028571Y-105092857D01*
X96657142Y-105092857D02*
X96657142Y-103892857D01*
X96780952Y-104064285D01*
X96904761Y-104178571D01*
X97028571Y-104235714D01*
X106500000Y-95992857D02*
X106500000Y-94792857D01*
X106066666Y-95650000D01*
X105633333Y-94792857D01*
X105633333Y-95992857D01*
X104023809Y-95992857D02*
X104023809Y-94792857D01*
X102600000Y-94792857D02*
X101857142Y-94792857D01*
X102228571Y-95992857D02*
X102228571Y-94792857D01*
X100557142Y-94792857D02*
X99690476Y-95992857D01*
X99690476Y-94792857D02*
X100557142Y-95992857D01*
X98204761Y-95364285D02*
X97771428Y-95364285D01*
X97585714Y-95992857D02*
X98204761Y-95992857D01*
X98204761Y-94792857D01*
X97585714Y-94792857D01*
X95419047Y-95992857D02*
X96038095Y-95992857D01*
X96038095Y-94792857D01*
X94057142Y-95650000D02*
X93438095Y-95650000D01*
X94180952Y-95992857D02*
X93747619Y-94792857D01*
X93314285Y-95992857D01*
D11*
X103090000Y-100000000D02*
X105090000Y-100000000D01*
G04 #@! TO.C,TP9*
X97090000Y-107130000D02*
G75*
G03*
X97090000Y-107130000I-700000J0D01*
G01*
G04 #@! TO.C,TP8*
X104060000Y-91810000D02*
G75*
G03*
X104060000Y-91810000I-700000J0D01*
G01*
G04 #@! TO.C,TP7*
X105700000Y-106000000D02*
G75*
G03*
X105700000Y-106000000I-700000J0D01*
G01*
G04 #@! TO.C,TP6*
X102360000Y-107860000D02*
G75*
G03*
X102360000Y-107860000I-700000J0D01*
G01*
G04 #@! TO.C,TP5*
X94360000Y-100000000D02*
G75*
G03*
X94360000Y-100000000I-700000J0D01*
G01*
G04 #@! TO.C,TP4*
X98300000Y-92150000D02*
G75*
G03*
X98300000Y-92150000I-700000J0D01*
G01*
G04 #@! TO.C,TP9*
D12*
X95320000Y-107436666D02*
X95320000Y-106736666D01*
X95086666Y-107236666D01*
X94853333Y-106736666D01*
X94853333Y-107436666D01*
X94386666Y-106736666D02*
X94253333Y-106736666D01*
X94186666Y-106770000D01*
X94120000Y-106836666D01*
X94086666Y-106970000D01*
X94086666Y-107203333D01*
X94120000Y-107336666D01*
X94186666Y-107403333D01*
X94253333Y-107436666D01*
X94386666Y-107436666D01*
X94453333Y-107403333D01*
X94520000Y-107336666D01*
X94553333Y-107203333D01*
X94553333Y-106970000D01*
X94520000Y-106836666D01*
X94453333Y-106770000D01*
X94386666Y-106736666D01*
X93820000Y-107403333D02*
X93720000Y-107436666D01*
X93553333Y-107436666D01*
X93486666Y-107403333D01*
X93453333Y-107370000D01*
X93420000Y-107303333D01*
X93420000Y-107236666D01*
X93453333Y-107170000D01*
X93486666Y-107136666D01*
X93553333Y-107103333D01*
X93686666Y-107070000D01*
X93753333Y-107036666D01*
X93786666Y-107003333D01*
X93820000Y-106936666D01*
X93820000Y-106870000D01*
X93786666Y-106803333D01*
X93753333Y-106770000D01*
X93686666Y-106736666D01*
X93520000Y-106736666D01*
X93420000Y-106770000D01*
X93120000Y-107436666D02*
X93120000Y-106736666D01*
G04 #@! TO.C,TP8*
X102330000Y-92306666D02*
X102330000Y-91606666D01*
X102096666Y-92106666D01*
X101863333Y-91606666D01*
X101863333Y-92306666D01*
X101530000Y-92306666D02*
X101530000Y-91606666D01*
X101230000Y-92273333D02*
X101130000Y-92306666D01*
X100963333Y-92306666D01*
X100896666Y-92273333D01*
X100863333Y-92240000D01*
X100830000Y-92173333D01*
X100830000Y-92106666D01*
X100863333Y-92040000D01*
X100896666Y-92006666D01*
X100963333Y-91973333D01*
X101096666Y-91940000D01*
X101163333Y-91906666D01*
X101196666Y-91873333D01*
X101230000Y-91806666D01*
X101230000Y-91740000D01*
X101196666Y-91673333D01*
X101163333Y-91640000D01*
X101096666Y-91606666D01*
X100930000Y-91606666D01*
X100830000Y-91640000D01*
X100396666Y-91606666D02*
X100263333Y-91606666D01*
X100196666Y-91640000D01*
X100130000Y-91706666D01*
X100096666Y-91840000D01*
X100096666Y-92073333D01*
X100130000Y-92206666D01*
X100196666Y-92273333D01*
X100263333Y-92306666D01*
X100396666Y-92306666D01*
X100463333Y-92273333D01*
X100530000Y-92206666D01*
X100563333Y-92073333D01*
X100563333Y-91840000D01*
X100530000Y-91706666D01*
X100463333Y-91640000D01*
X100396666Y-91606666D01*
G04 #@! TO.C,TP7*
X104070000Y-106733333D02*
X103970000Y-106766666D01*
X103803333Y-106766666D01*
X103736666Y-106733333D01*
X103703333Y-106700000D01*
X103670000Y-106633333D01*
X103670000Y-106566666D01*
X103703333Y-106500000D01*
X103736666Y-106466666D01*
X103803333Y-106433333D01*
X103936666Y-106400000D01*
X104003333Y-106366666D01*
X104036666Y-106333333D01*
X104070000Y-106266666D01*
X104070000Y-106200000D01*
X104036666Y-106133333D01*
X104003333Y-106100000D01*
X103936666Y-106066666D01*
X103770000Y-106066666D01*
X103670000Y-106100000D01*
X102970000Y-106700000D02*
X103003333Y-106733333D01*
X103103333Y-106766666D01*
X103170000Y-106766666D01*
X103270000Y-106733333D01*
X103336666Y-106666666D01*
X103370000Y-106600000D01*
X103403333Y-106466666D01*
X103403333Y-106366666D01*
X103370000Y-106233333D01*
X103336666Y-106166666D01*
X103270000Y-106100000D01*
X103170000Y-106066666D01*
X103103333Y-106066666D01*
X103003333Y-106100000D01*
X102970000Y-106133333D01*
X102670000Y-106766666D02*
X102670000Y-106066666D01*
X102270000Y-106766666D02*
X102570000Y-106366666D01*
X102270000Y-106066666D02*
X102670000Y-106466666D01*
G04 #@! TO.C,TP6*
X100683333Y-108036666D02*
X100450000Y-108736666D01*
X100216666Y-108036666D01*
X99983333Y-108736666D02*
X99983333Y-108036666D01*
X99816666Y-108036666D01*
X99716666Y-108070000D01*
X99650000Y-108136666D01*
X99616666Y-108203333D01*
X99583333Y-108336666D01*
X99583333Y-108436666D01*
X99616666Y-108570000D01*
X99650000Y-108636666D01*
X99716666Y-108703333D01*
X99816666Y-108736666D01*
X99983333Y-108736666D01*
X99283333Y-108736666D02*
X99283333Y-108036666D01*
X99116666Y-108036666D01*
X99016666Y-108070000D01*
X98950000Y-108136666D01*
X98916666Y-108203333D01*
X98883333Y-108336666D01*
X98883333Y-108436666D01*
X98916666Y-108570000D01*
X98950000Y-108636666D01*
X99016666Y-108703333D01*
X99116666Y-108736666D01*
X99283333Y-108736666D01*
G04 #@! TO.C,TP5*
X94233333Y-101050000D02*
X94300000Y-101016666D01*
X94400000Y-101016666D01*
X94500000Y-101050000D01*
X94566666Y-101116666D01*
X94600000Y-101183333D01*
X94633333Y-101316666D01*
X94633333Y-101416666D01*
X94600000Y-101550000D01*
X94566666Y-101616666D01*
X94500000Y-101683333D01*
X94400000Y-101716666D01*
X94333333Y-101716666D01*
X94233333Y-101683333D01*
X94200000Y-101650000D01*
X94200000Y-101416666D01*
X94333333Y-101416666D01*
X93900000Y-101716666D02*
X93900000Y-101016666D01*
X93500000Y-101716666D01*
X93500000Y-101016666D01*
X93166666Y-101716666D02*
X93166666Y-101016666D01*
X93000000Y-101016666D01*
X92900000Y-101050000D01*
X92833333Y-101116666D01*
X92800000Y-101183333D01*
X92766666Y-101316666D01*
X92766666Y-101416666D01*
X92800000Y-101550000D01*
X92833333Y-101616666D01*
X92900000Y-101683333D01*
X93000000Y-101716666D01*
X93166666Y-101716666D01*
G04 #@! TO.C,TP4*
X96163333Y-92556666D02*
X96396666Y-92223333D01*
X96563333Y-92556666D02*
X96563333Y-91856666D01*
X96296666Y-91856666D01*
X96230000Y-91890000D01*
X96196666Y-91923333D01*
X96163333Y-91990000D01*
X96163333Y-92090000D01*
X96196666Y-92156666D01*
X96230000Y-92190000D01*
X96296666Y-92223333D01*
X96563333Y-92223333D01*
X95896666Y-92523333D02*
X95796666Y-92556666D01*
X95630000Y-92556666D01*
X95563333Y-92523333D01*
X95530000Y-92490000D01*
X95496666Y-92423333D01*
X95496666Y-92356666D01*
X95530000Y-92290000D01*
X95563333Y-92256666D01*
X95630000Y-92223333D01*
X95763333Y-92190000D01*
X95830000Y-92156666D01*
X95863333Y-92123333D01*
X95896666Y-92056666D01*
X95896666Y-91990000D01*
X95863333Y-91923333D01*
X95830000Y-91890000D01*
X95763333Y-91856666D01*
X95596666Y-91856666D01*
X95496666Y-91890000D01*
X95296666Y-91856666D02*
X94896666Y-91856666D01*
X95096666Y-92556666D02*
X95096666Y-91856666D01*
G04 #@! TD*
M02*
