G04 #@! TF.GenerationSoftware,KiCad,Pcbnew,(5.1.8)-1*
G04 #@! TF.CreationDate,2021-06-14T15:46:15+01:00*
G04 #@! TF.ProjectId,amulet,616d756c-6574-42e6-9b69-6361645f7063,rev?*
G04 #@! TF.SameCoordinates,Original*
G04 #@! TF.FileFunction,Copper,L2,Bot*
G04 #@! TF.FilePolarity,Positive*
%FSLAX46Y46*%
G04 Gerber Fmt 4.6, Leading zero omitted, Abs format (unit mm)*
G04 Created by KiCad (PCBNEW (5.1.8)-1) date 2021-06-14 15:46:15*
%MOMM*%
%LPD*%
G01*
G04 APERTURE LIST*
G04 #@! TA.AperFunction,ComponentPad*
%ADD10C,0.850000*%
G04 #@! TD*
G04 #@! TA.AperFunction,SMDPad,CuDef*
%ADD11C,1.000000*%
G04 #@! TD*
G04 #@! TA.AperFunction,SMDPad,CuDef*
%ADD12R,5.000000X1.000000*%
G04 #@! TD*
G04 #@! TA.AperFunction,ViaPad*
%ADD13C,0.400000*%
G04 #@! TD*
G04 #@! TA.AperFunction,Conductor*
%ADD14C,0.240000*%
G04 #@! TD*
G04 #@! TA.AperFunction,Conductor*
%ADD15C,0.250000*%
G04 #@! TD*
G04 #@! TA.AperFunction,Conductor*
%ADD16C,0.200000*%
G04 #@! TD*
G04 #@! TA.AperFunction,Conductor*
%ADD17C,0.400000*%
G04 #@! TD*
G04 APERTURE END LIST*
D10*
G04 #@! TO.P,REF\u002A\u002A,1*
G04 #@! TO.N,VDD*
X90000000Y-100000000D03*
G04 #@! TD*
G04 #@! TO.P,REF\u002A\u002A,1*
G04 #@! TO.N,VDD*
X110000000Y-100000000D03*
G04 #@! TD*
D11*
G04 #@! TO.P,TP9,1*
G04 #@! TO.N,/PA6*
X96390000Y-107130000D03*
G04 #@! TD*
G04 #@! TO.P,TP8,1*
G04 #@! TO.N,/PA5*
X103360000Y-91810000D03*
G04 #@! TD*
G04 #@! TO.P,TP7,1*
G04 #@! TO.N,/PA4*
X105000000Y-106000000D03*
G04 #@! TD*
G04 #@! TO.P,TP6,1*
G04 #@! TO.N,VDD*
X101660000Y-107860000D03*
G04 #@! TD*
G04 #@! TO.P,TP5,1*
G04 #@! TO.N,GND*
X93660000Y-100000000D03*
G04 #@! TD*
G04 #@! TO.P,TP4,1*
G04 #@! TO.N,Net-(TP4-Pad1)*
X97600000Y-92150000D03*
G04 #@! TD*
D12*
G04 #@! TO.P,TP2,1*
G04 #@! TO.N,GND*
X100000000Y-100000000D03*
G04 #@! TD*
D13*
G04 #@! TO.N,VDD*
X101870000Y-108560000D03*
G04 #@! TO.N,GND*
X95390000Y-94340000D03*
X95150000Y-105140000D03*
X98210000Y-92960000D03*
X100010000Y-91430000D03*
X98000000Y-107600000D03*
G04 #@! TO.N,Net-(D1-Pad2)*
X93000000Y-97150000D03*
X107290000Y-98180000D03*
X106010000Y-105420000D03*
X95710000Y-96780000D03*
G04 #@! TO.N,Net-(D10-Pad2)*
X94080000Y-98580000D03*
X92910000Y-98580000D03*
X107140000Y-96230000D03*
X107550000Y-104060000D03*
X94620000Y-96820000D03*
G04 #@! TO.N,Net-(D11-Pad2)*
X106300000Y-94450000D03*
X108550000Y-102130000D03*
X94010000Y-96580000D03*
G04 #@! TO.N,Net-(D4-Pad2)*
X93838294Y-95923923D03*
X109070000Y-99980000D03*
X105080000Y-92640000D03*
G04 #@! TO.N,/BUTTON*
X96390000Y-105930000D03*
X96880000Y-92700000D03*
G04 #@! TO.N,/PA4*
X102590000Y-91330000D03*
X102590000Y-94550000D03*
X107100000Y-100000000D03*
X93170000Y-94010000D03*
X103760000Y-105680000D03*
G04 #@! TO.N,/PA5*
X104200000Y-92030000D03*
X93810000Y-93350000D03*
G04 #@! TO.N,/PA6*
X94790000Y-92640000D03*
X92370000Y-95140000D03*
X91450000Y-101740000D03*
G04 #@! TO.N,Net-(TP4-Pad1)*
X97470000Y-92820000D03*
G04 #@! TD*
D14*
G04 #@! TO.N,VDD*
X101660000Y-107860000D02*
X101870000Y-108560000D01*
G04 #@! TO.N,GND*
X96400000Y-93950000D02*
X95390000Y-94340000D01*
X97490000Y-93440000D02*
X96400000Y-93950000D01*
X98210000Y-92960000D02*
X97490000Y-93440000D01*
X98210000Y-92960000D02*
X100010000Y-91430000D01*
X94150000Y-104020000D02*
X95150000Y-105140000D01*
X92440000Y-100470000D02*
X93150000Y-102390000D01*
X93150000Y-102390000D02*
X94150000Y-104020000D01*
X92383357Y-99986643D02*
X93000000Y-100000000D01*
X92383357Y-99986643D02*
X92440000Y-100470000D01*
X100000000Y-100000000D02*
X96000000Y-100000000D01*
X96000000Y-100000000D02*
X93000000Y-100000000D01*
X92280000Y-98200000D02*
X92290000Y-99190000D01*
X92490000Y-96900000D02*
X92280000Y-98200000D01*
X92820000Y-96260000D02*
X92490000Y-96900000D01*
X93480000Y-95540000D02*
X92820000Y-96260000D01*
X93930000Y-95200000D02*
X93480000Y-95540000D01*
X92290000Y-99190000D02*
X92383357Y-99986643D01*
X95400000Y-94340000D02*
X93930000Y-95200000D01*
X96490000Y-105390000D02*
X95830000Y-105270000D01*
X96770000Y-105520000D02*
X96490000Y-105390000D01*
X96960000Y-105740000D02*
X96770000Y-105520000D01*
X95830000Y-105270000D02*
X95150000Y-105140000D01*
X97580000Y-106450000D02*
X96960000Y-105740000D01*
X98000000Y-107600000D02*
X97580000Y-106450000D01*
G04 #@! TO.N,Net-(D1-Pad2)*
X107550000Y-99190000D02*
X107290000Y-98180000D01*
X107630000Y-99940000D02*
X107550000Y-99190000D01*
X107510000Y-101810000D02*
X107610000Y-100720000D01*
X107000000Y-103630000D02*
X107510000Y-101810000D01*
X107610000Y-100720000D02*
X107630000Y-99940000D01*
X106010000Y-105420000D02*
X107000000Y-103630000D01*
X106530000Y-96410000D02*
X107290000Y-98180000D01*
X105250000Y-94850000D02*
X106530000Y-96410000D01*
X104790000Y-94350000D02*
X105250000Y-94850000D01*
X104480000Y-94130000D02*
X104790000Y-94350000D01*
X104090000Y-94020000D02*
X104480000Y-94130000D01*
X99930000Y-94110000D02*
X100320000Y-94020000D01*
X99310000Y-94490000D02*
X99930000Y-94110000D01*
X100320000Y-94020000D02*
X104090000Y-94020000D01*
X95820000Y-96640000D02*
X99310000Y-94490000D01*
X95710000Y-96780000D02*
X95820000Y-96640000D01*
X95710000Y-96780000D02*
X94810000Y-97350000D01*
X94810000Y-97350000D02*
X94400000Y-97350000D01*
X94400000Y-97350000D02*
X93000000Y-97150000D01*
D15*
G04 #@! TO.N,Net-(D10-Pad2)*
X94080000Y-98580000D02*
X92910000Y-98580000D01*
D14*
X107790000Y-97780000D02*
X107140000Y-96230000D01*
X107930000Y-98240000D02*
X107790000Y-97780000D01*
X108010000Y-98740000D02*
X107930000Y-98240000D01*
X108080000Y-100100000D02*
X108010000Y-98740000D01*
X108030000Y-102110000D02*
X108080000Y-100100000D01*
X107820000Y-103260000D02*
X108030000Y-102110000D01*
X107550000Y-104060000D02*
X107820000Y-103260000D01*
X99770000Y-93660000D02*
X100210000Y-93560000D01*
X94620000Y-96820000D02*
X94630000Y-96760000D01*
X105450000Y-94350000D02*
X105930000Y-94870000D01*
X94630000Y-96760000D02*
X97040000Y-95280000D01*
X97040000Y-95280000D02*
X99070000Y-94110000D01*
X100210000Y-93560000D02*
X104164730Y-93565270D01*
X99070000Y-94110000D02*
X99770000Y-93660000D01*
X104164730Y-93565270D02*
X104590000Y-93640000D01*
X104590000Y-93640000D02*
X104970000Y-93880000D01*
X104970000Y-93880000D02*
X105450000Y-94350000D01*
X105930000Y-94870000D02*
X107140000Y-96230000D01*
G04 #@! TO.N,Net-(D11-Pad2)*
X107590000Y-95940000D02*
X106300000Y-94450000D01*
X108420000Y-98280000D02*
X108210000Y-97610000D01*
X108540000Y-100010000D02*
X108420000Y-98280000D01*
X108210000Y-97610000D02*
X107590000Y-95940000D01*
X108550000Y-102130000D02*
X108540000Y-100010000D01*
X104370000Y-93100000D02*
X102650000Y-93100000D01*
X104740000Y-93160000D02*
X104370000Y-93100000D01*
X105200000Y-93400000D02*
X104740000Y-93160000D01*
X106300000Y-94450000D02*
X105200000Y-93400000D01*
X96880000Y-94850000D02*
X98720000Y-93790000D01*
X98720000Y-93790000D02*
X99550000Y-93250000D01*
X94010000Y-96580000D02*
X96880000Y-94850000D01*
X99550000Y-93250000D02*
X100120000Y-93110000D01*
X100120000Y-93110000D02*
X102272268Y-93100000D01*
X102272268Y-93100000D02*
X102700000Y-93100000D01*
G04 #@! TO.N,Net-(D4-Pad2)*
X108990000Y-98990000D02*
X109070000Y-99980000D01*
X108800000Y-97830000D02*
X108990000Y-98990000D01*
X108220000Y-96000000D02*
X108800000Y-97830000D01*
X106500000Y-93830000D02*
X107790000Y-95370000D01*
X107790000Y-95370000D02*
X108220000Y-96000000D01*
X105490000Y-92920000D02*
X106500000Y-93830000D01*
X105080000Y-92640000D02*
X105490000Y-92920000D01*
X96500000Y-94550000D02*
X93838294Y-95923923D01*
X98528059Y-93378059D02*
X96500000Y-94550000D01*
X99440000Y-92780000D02*
X98528059Y-93378059D01*
X100110000Y-92640000D02*
X99440000Y-92780000D01*
X105080000Y-92640000D02*
X100110000Y-92640000D01*
G04 #@! TO.N,/BUTTON*
X92180000Y-101350000D02*
X92800000Y-102840000D01*
X96880000Y-92700000D02*
X96030000Y-93360000D01*
X93706999Y-94820686D02*
X93170000Y-95140000D01*
X94690000Y-105530000D02*
X95160000Y-105760000D01*
X96030000Y-93360000D02*
X95270000Y-93819999D01*
X92800000Y-102840000D02*
X93840000Y-104500000D01*
X95270000Y-93819999D02*
X95010000Y-93940000D01*
X95010000Y-93940000D02*
X94205902Y-94528810D01*
X94205902Y-94528810D02*
X93706999Y-94820686D01*
X93170000Y-95140000D02*
X92860000Y-95480000D01*
X92340000Y-96060000D02*
X92050000Y-96590000D01*
X92860000Y-95480000D02*
X92340000Y-96060000D01*
X92050000Y-96590000D02*
X91860000Y-97750000D01*
X93840000Y-104500000D02*
X94690000Y-105530000D01*
X91860000Y-97750000D02*
X91764736Y-98595264D01*
X95160000Y-105760000D02*
X96390000Y-105930000D01*
X91764736Y-98595264D02*
X91850000Y-99860000D01*
X91850000Y-99860000D02*
X92180000Y-101350000D01*
G04 #@! TO.N,/PA4*
X106760000Y-98310000D02*
X107100000Y-100000000D01*
X106110000Y-96700000D02*
X106760000Y-98310000D01*
X105400000Y-95750000D02*
X106110000Y-96700000D01*
X104560000Y-94790000D02*
X105400000Y-95750000D01*
X102590000Y-94550000D02*
X103960000Y-94560000D01*
X104270000Y-94620000D02*
X104560000Y-94790000D01*
X103960000Y-94560000D02*
X104270000Y-94620000D01*
X104980000Y-105990000D02*
X105000000Y-106000000D01*
X103760000Y-105680000D02*
X104980000Y-105990000D01*
X100350000Y-90450000D02*
X100780000Y-90560000D01*
X99170000Y-90500000D02*
X99830000Y-90460000D01*
X97730000Y-90660000D02*
X99170000Y-90500000D01*
X96800000Y-90900000D02*
X97730000Y-90660000D01*
X95600000Y-91200000D02*
X96800000Y-90900000D01*
X94210000Y-91800000D02*
X95600000Y-91200000D01*
X93870000Y-92120000D02*
X94210000Y-91800000D01*
X99830000Y-90460000D02*
X100350000Y-90450000D01*
X93380000Y-92880000D02*
X93870000Y-92120000D01*
X93270000Y-93340000D02*
X93380000Y-92880000D01*
X100780000Y-90560000D02*
X102590000Y-91330000D01*
X93170000Y-94010000D02*
X93270000Y-93340000D01*
G04 #@! TO.N,/PA5*
X103500000Y-91960000D02*
X103500000Y-91780000D01*
X100220000Y-90910000D02*
X100640000Y-91050000D01*
X100640000Y-91050000D02*
X102490000Y-91870000D01*
X99900000Y-90910000D02*
X100220000Y-90910000D01*
X102490000Y-91870000D02*
X104200000Y-92030000D01*
X97490000Y-91300000D02*
X99330000Y-90980000D01*
X95360000Y-91800000D02*
X97490000Y-91300000D01*
X94520000Y-92160000D02*
X95360000Y-91800000D01*
X99330000Y-90980000D02*
X99900000Y-90910000D01*
X94280000Y-92430000D02*
X94520000Y-92160000D01*
X93810000Y-93350000D02*
X94280000Y-92430000D01*
G04 #@! TO.N,/PA6*
X92900000Y-94760000D02*
X92370000Y-95140000D01*
X93510000Y-94420000D02*
X92900000Y-94760000D01*
X94250000Y-93710000D02*
X93510000Y-94420000D01*
X94790000Y-92640000D02*
X94250000Y-93710000D01*
X94920000Y-106300000D02*
X96390000Y-107130000D01*
X94400000Y-105920000D02*
X94920000Y-106300000D01*
X93530000Y-105090000D02*
X94400000Y-105920000D01*
X92820000Y-104030000D02*
X93530000Y-105090000D01*
X91450000Y-101740000D02*
X92820000Y-104030000D01*
D16*
G04 #@! TO.N,Net-(TP4-Pad1)*
X97610000Y-92310000D02*
X97600000Y-92170000D01*
D17*
X97470000Y-92820000D02*
X97610000Y-92310000D01*
G04 #@! TD*
M02*
