M48
; DRILL file {KiCad (5.1.8)-1} date 06/14/21 15:46:11
; FORMAT={3:3/ absolute / metric / suppress leading zeros}
; #@! TF.CreationDate,2021-06-14T15:46:11+01:00
; #@! TF.GenerationSoftware,Kicad,Pcbnew,(5.1.8)-1
FMAT,2
METRIC,TZ
T1C0.300
T2C0.500
%
G90
G05
T1
X91450Y-101740
X92370Y-95140
X92910Y-98580
X93000Y-97150
X93170Y-94010
X93810Y-93350
X93838Y-95924
X94010Y-96580
X94080Y-98580
X94620Y-96820
X94790Y-92640
X95150Y-105140
X95390Y-94340
X95710Y-96780
X96390Y-105930
X96880Y-92700
X97470Y-92820
X98000Y-107600
X98210Y-92960
X100010Y-91430
X101870Y-108560
X102590Y-91330
X102590Y-94550
X103760Y-105680
X104200Y-92030
X105080Y-92640
X106010Y-105420
X106300Y-94450
X107100Y-100000
X107140Y-96230
X107290Y-98180
X107550Y-104060
X108550Y-102130
X109070Y-99980
T2
X90000Y-100000
X110000Y-100000
T0
M30
